<svg width="71" height="23" viewBox="0 0 71 23" fill="none" xmlns="http://www.w3.org/2000/svg">
<path d="M14.8 0C17.5627 0 13.748 1.28434 17.248 4.72012C19.2827 6.71746 20.3 9.20012 20.3 12.1681C20.3 15.1175 19.3293 17.6375 17.388 19.7281C15.4467 21.8001 13.0573 22.8361 10.22 22.8361C7.38267 22.8361 4.96533 21.8095 2.968 19.7561C0.989334 17.7028 0 15.2575 0 12.4201C0 10.8708 0.28 9.42412 0.84 8.08012C1.4 6.71746 2.14667 5.57879 3.08 4.66412C4.01333 3.74945 5.08667 3.03079 6.3 2.50812C7.51333 1.98545 13.512 0 14.8 0ZM4.956 12.2801C4.956 13.9415 5.488 15.2948 6.552 16.3401C7.63467 17.3668 8.83867 17.8801 10.164 17.8801C11.4893 17.8801 12.684 17.3761 13.748 16.3681C14.812 15.3601 15.344 14.0068 15.344 12.3081C15.344 10.6095 14.8027 9.24679 13.72 8.22012C12.656 7.19346 11.4613 6.68012 10.136 6.68012C8.81067 6.68012 7.616 7.20279 6.552 8.24812C5.488 9.27479 4.956 10.6188 4.956 12.2801Z" fill="black"/>
<path d="M32.3229 1.72412C35.0856 1.72412 37.4843 2.72279 39.5189 4.72012C41.5536 6.71746 42.5709 9.20012 42.5709 12.1681C42.5709 15.1175 41.6003 17.6375 39.6589 19.7281C37.7176 21.8001 35.3283 22.8361 32.4909 22.8361C29.6536 22.8361 27.2363 21.8095 25.2389 19.7561C23.2603 17.7028 22.2709 15.2575 22.2709 12.4201C22.2709 10.8708 22.5509 9.42412 23.1109 8.08012C23.6709 6.71746 24.4176 5.57879 25.3509 4.66412C26.2843 3.74945 27.3576 3.03079 28.5709 2.50812C29.7843 1.98545 31.0349 1.72412 32.3229 1.72412ZM27.2269 12.2801C27.2269 13.9415 27.7589 15.2948 28.8229 16.3401C29.9056 17.3668 31.1096 17.8801 32.4349 17.8801C33.7603 17.8801 34.9549 17.3761 36.0189 16.3681C37.0829 15.3601 37.6149 14.0068 37.6149 12.3081C37.6149 10.6095 37.0736 9.24679 35.9909 8.22012C34.9269 7.19346 33.7323 6.68012 32.4069 6.68012C31.0816 6.68012 29.8869 7.20279 28.8229 8.24812C27.7589 9.27479 27.2269 10.6188 27.2269 12.2801Z" fill="black"/>
<path d="M47.4539 1.94812L52.6339 1.97612C55.3405 1.97612 57.7205 2.95612 59.7739 4.91612C61.8272 6.85745 62.8539 9.25612 62.8539 12.1121C62.8539 14.9495 61.8459 17.3855 59.8299 19.4201C57.8325 21.4548 55.4059 22.4721 52.5499 22.4721H47.4259C46.2872 22.4721 45.5779 22.2388 45.2979 21.7721C45.0739 21.3801 44.9619 20.7828 44.9619 19.9801V4.41212C44.9619 3.96412 44.9712 3.63745 44.9899 3.43212C45.0272 3.22679 45.1205 2.98412 45.2699 2.70412C45.5312 2.20012 46.2592 1.94812 47.4539 1.94812ZM52.6339 17.5161C53.9779 17.5161 55.1912 17.0215 56.2739 16.0321C57.3565 15.0241 57.8979 13.7641 57.8979 12.2521C57.8979 10.7401 57.3659 9.48012 56.3019 8.47212C55.2565 7.44545 54.0245 6.93212 52.6059 6.93212H49.9179V17.5161H52.6339Z" fill="black"/>
<path d="M65.2367 4.44012C65.2367 4.01079 65.246 3.69345 65.2647 3.48812C65.302 3.26412 65.3954 3.01212 65.5447 2.73212C65.806 2.22812 66.5341 1.97612 67.7287 1.97612C69.0354 1.97612 69.8101 2.32145 70.0527 3.01212C70.146 3.32945 70.1927 3.81479 70.1927 4.46812V20.0361C70.1927 20.4841 70.174 20.8108 70.1367 21.0161C70.118 21.2215 70.034 21.4641 69.8847 21.7441C69.6234 22.2481 68.8954 22.5001 67.7007 22.5001C66.3941 22.5001 65.6287 22.1455 65.4047 21.4361C65.2927 21.1375 65.2367 20.6615 65.2367 20.0081V4.44012Z" fill="black"/>
</svg>
